GIL12_free4_RRA_states
nRows=7
nColumns=47

# SIMM Motion File Header:
name GIL12_free4_RRA_states
datacolumns 47
datarows 7
otherdata 1
range 0.53167000000000031000 0.53467000000000031000
endheader
time	pelvis_tx	pelvis_ty	pelvis_tz	pelvis_tilt	pelvis_list	pelvis_rotation	hip_flexion_r	hip_adduction_r	hip_rotation_r	knee_angle_r	ankle_angle_r	subtalar_angle_r	mtp_angle_r	hip_flexion_l	hip_adduction_l	hip_rotation_l	knee_angle_l	ankle_angle_l	subtalar_angle_l	mtp_angle_l	lumbar_extension	lumbar_bending	lumbar_rotation	pelvis_tx_u	pelvis_ty_u	pelvis_tz_u	pelvis_tilt_u	pelvis_list_u	pelvis_rotation_u	hip_flexion_r_u	hip_adduction_r_u	hip_rotation_r_u	knee_angle_r_u	ankle_angle_r_u	subtalar_angle_r_u	mtp_angle_r_u	hip_flexion_l_u	hip_adduction_l_u	hip_rotation_l_u	knee_angle_l_u	ankle_angle_l_u	subtalar_angle_l_u	mtp_angle_l_u	lumbar_extension_u	lumbar_bending_u	lumbar_rotation_u
      0.53167000000000031000	      1.25074255600772430000	      0.65482356839962896000	     -0.25333742229327499000	      6.37512752861488340000	     -1.55104706090597590000	     -0.39675428131662355000	     20.81079532607232400000	      1.91827008797469430000	     -1.42502331761625540000	    -19.95799728111864000000	     -5.45559602158424720000	      0.00000000000001958205	     -0.00000000000001600647	    -28.14097463913527300000	     -0.10265634100355578000	     -5.01373083011471990000	    -18.44538106684361600000	     -3.66245469507260600000	      0.00000000000012238437	     -0.00000000000057521031	    -22.94419257252127100000	      5.50411043566667860000	     -4.24456973398546820000	      1.25806988618331170000	      0.15865397674352516000	      0.13600828166648946000	      9.13531552298723250000	    -32.36340062895661900000	      0.11228413043238193000	    -33.27108591865342600000	     51.30758564681811900000	     35.78583164021917900000	   -193.37327311310784000000	     93.36549388256651100000	     -0.00000000000012757372	     -0.00000000000006410549	    107.18321828805965000000	    -48.79872817759729000000	    -18.09280904321770600000	   -319.26762953278507000000	   -423.62854899775385000000	      0.00000000000047974068	     -0.00000000000193963107	    -11.33302383870615600000	     76.84926998174380200000	    -41.00538955052115900000
      0.53217000000000025000	      1.25137144837704860000	      0.65490324260359090000	     -0.25326967216980678000	      6.37966422328079300000	     -1.56716403954760500000	     -0.39663115038138513000	     20.79383038606511400000	      1.94378623434253490000	     -1.40697637523502640000	    -20.05398661984537500000	     -5.40862294385379540000	      0.00000000000001951518	     -0.00000000000001602814	    -28.08699299910971800000	     -0.12703901187806668000	     -5.02268716884509200000	    -18.60533058506901900000	     -3.87463192336674790000	      0.00000000000012262644	     -0.00000000000057618506	    -22.94980423829860400000	      5.54248623189681760000	     -4.26508884593997100000	      1.25749625398834190000	      0.16004029428602268000	      0.13499352727402261000	      9.01092216980072890000	    -32.10384198777878600000	      0.37992495794044384000	    -34.58734614497709700000	     50.75657984642617000000	     36.39827798338072300000	   -190.58394522779071000000	     94.52393745355048800000	     -0.00000000000015380717	     -0.00000000000000945603	    108.74320111460503000000	    -48.73143454764535000000	    -17.73428052736620200000	   -320.52815787638843000000	   -425.06950697452783000000	      0.00000000000048662585	     -0.00000000000195125988	    -11.11313974133878800000	     76.65223005523571900000	    -41.06899036019844800000
      0.53267000000000031000	      1.25200004897357960000	      0.65498360617065254000	     -0.25320242750291400000	      6.38413794509220180000	     -1.58315021713629880000	     -0.39637466068953836000	     20.77620921309273100000	      1.96902618211608170000	     -1.38862869872138070000	    -20.14858089756491200000	     -5.36107499988591480000	      0.00000000000001944299	     -0.00000000000001603242	    -28.03223167644177500000	     -0.15138721580181322000	     -5.03146677148259600000	    -18.76590685824230300000	     -4.08751228504458110000	      0.00000000000012286901	     -0.00000000000057715747	    -22.95530524229446800000	      5.58076097573424690000	     -4.28563667057406580000	      1.25690288975890430000	      0.16141146845589432000	      0.13398635703507394000	      8.88349175591991620000	    -31.84016920314193700000	      0.64573400786021062000	    -35.89619019189797900000	     50.20266143500992900000	     36.98877380827905600000	   -187.79264420328917000000	     95.66487571140146400000	     -0.00000000000015209746	      0.00000000000000706482	    110.30175530861102000000	    -48.66077973478466100000	    -17.38572145386297800000	   -321.77449074895583000000	   -426.43893827278868000000	      0.00000000000048982852	     -0.00000000000195450361	    -10.89043385018355700000	     76.44504885046620800000	    -41.12026337217625400000
      0.53317000000000025000	      1.25262834799901790000	      0.65506465155753413000	     -0.25313568446419854000	      6.38854721575313530000	     -1.59900352590991780000	     -0.39598574219556820000	     20.75793548104838800000	      1.99398842662905750000	     -1.36999129854998870000	    -20.24177907478742700000	     -5.31296099781331050000	      0.00000000000001935998	     -0.00000000000001602179	    -27.97669151591209800000	     -0.17569922343062946000	     -5.04007460381792600000	    -18.92710267051942100000	     -4.30105887007591740000	      0.00000000000012311282	     -0.00000000000057813023	    -22.96069421835020200000	      5.61892958459921840000	     -4.30620704104704280000	      1.25628991992832570000	      0.16276755384421954000	      0.13298727840707722000	      8.75306601419564780000	    -31.57239918268271200000	      0.90958849233657357000	    -37.19732285140492700000	     49.64592746500236600000	     37.55708795168379800000	   -185.00020662849064000000	     96.78822012821795800000	     -0.00000000000016647387	      0.00000000000000618007	    111.85867508926741000000	    -48.58671580490727100000	    -17.04744201304255600000	   -323.00639242371824000000	   -427.73640130408182000000	      0.00000000000048567120	     -0.00000000000193145456	    -10.66500556784303700000	     76.22769075346001000000	    -41.15912757085430200000
      0.53367000000000031000	      1.25325633564756570000	      0.65514637121913044000	     -0.25306943879489896000	      6.39289051919322840000	     -1.61472193358183840000	     -0.39546541771204313000	     20.73901322306443600000	      2.01867165003866770000	     -1.35107533948869270000	    -20.33358103295828600000	     -5.26428978177190390000	      0.00000000000001927171	     -0.00000000000001602143	    -27.92037330623628200000	     -0.19997335228923349000	     -5.04851597162190390000	    -19.08891082182802300000	     -4.51523651798770320000	      0.00000000000012335775	     -0.00000000000057910227	    -22.96596981087748500000	      5.65698696216398030000	     -4.32679371809168420000	      1.25565747569077370000	      0.16410860560403129000	      0.13199677767228413000	      8.61968930463941700000	    -31.30053236249750300000	      1.17136990070332760000	    -38.49045829724315800000	     49.08643545075271700000	     38.10302976409136000000	   -182.20734168622261000000	     97.89355093032554600000	     -0.00000000000018162464	      0.00000000000000948008	    113.41376363567075000000	    -48.50917502137122700000	    -16.71971012937885300000	   -324.22372390318037000000	   -428.96082665721724000000	      0.00000000000049374870	     -0.00000000000195685746	    -10.43695589400256200000	     76.00010642995884800000	    -41.18551197841500100000
      0.53417000000000026000	      1.25388400225695660000	      0.65522875766983735000	     -0.25300368617522201000	      6.39716642119488820000	     -1.63030337733554800000	     -0.39481473692641028000	     20.71944639983953000000	      2.04307441450468240000	     -1.33189203509276190000	    -20.42398647336768000000	     -5.21507046718105370000	      0.00000000000001918702	     -0.00000000000001602241	    -27.86327809201276700000	     -0.22420781028682246000	     -5.05679611940486500000	    -19.25132392850963500000	     -4.73000747319791510000	      0.00000000000012360356	     -0.00000000000058007667	    -22.97113075453517800000	      5.69492798088440730000	     -4.34739046224086590000	      1.25500572595083830000	      0.16543469575510059000	      0.13101534570287682000	      8.48340965020613960000	    -31.02458019077047500000	      1.43096374949353680000	    -39.77533026584095700000	     48.52425885124861100000	     38.62637614072149700000	   -179.41482055164803000000	     98.98074975037535200000	     -0.00000000000014966799	     -0.00000000000002856352	    114.96681208958448000000	    -48.42810572550963100000	    -16.40281002933655300000	   -325.42625998133354000000	   -430.11188667307954000000	      0.00000000000049260938	     -0.00000000000196420539	    -10.20638826532325400000	     75.76226158886932200000	    -41.19935218349930800000
      0.53467000000000031000	      1.25451133818516090000	      0.65531180343375184000	     -0.25293842185749837000	      6.40137345372010900000	     -1.64574583385281350000	     -0.39403483605359613000	     20.69923931069872900000	      2.06719547315285950000	     -1.31245275550168490000	    -20.51299603325879400000	     -5.16531210667939790000	      0.00000000000001911296	     -0.00000000000001602997	    -27.80540686799787100000	     -0.24840086072596082000	     -5.06492062861781990000	    -19.41433459183097900000	     -4.94533599933424290000	      0.00000000000012385265	     -0.00000000000058106768	    -22.97617579718221100000	      5.73274750741026830000	     -4.36799097055924880000	      1.25433484706479060000	      0.16674589782014695000	      0.13004346508366321000	      8.34427966052489370000	    -30.74454865738912800000	      1.68826466036200640000	    -41.05169383310671800000	     47.95946849991493400000	     39.12697031118460000000	   -176.62338107795907000000	    100.04949297881053000000	     -0.00000000000013828598	      0.00000000000001084051	    116.51761556676583000000	    -48.34345221774206200000	    -16.09699150759067600000	   -326.61385879251611000000	   -431.18848595157561000000	      0.00000000000050074003	     -0.00000000000199244895	     -9.97340938893282920000	     75.51411877022799500000	    -41.20059406531377300000
